<svg width="1280" height="800" viewBox="0 0 1280 800" fill="none" xmlns="http://www.w3.org/2000/svg">
<g clip-path="url(#clip0_2601_313)">
<rect width="1280" height="800" fill="#E3FCF7"/>
<path d="M1007.99 310.197C953.567 310.197 909.394 353.581 909.394 408.007V409.585C909.394 463.222 865.222 507.394 811.585 507.394H810.007C755.581 507.394 712.197 551.567 712.197 605.204V605.993C712.197 660.419 668.814 703.803 614.387 703.803H612.81C559.172 703.803 515 747.975 515 801.613V803.19C515 856.828 559.172 901 612.81 901H1105.01C1214.66 901 1303 811.867 1303 703.014V210.81C1303 157.172 1258.83 113 1205.19 113H1203.61C1149.19 113 1105.8 157.172 1105.8 211.599C1106.59 266.025 1062.42 310.197 1007.99 310.197Z" fill="#00ED64"/>
<path d="M586.139 740.554H1234.46" stroke="black" stroke-linecap="round" stroke-linejoin="round"/>
<path d="M753.001 661.197L730.496 661.163L730.479 646.555C730.505 635.147 721.905 625.853 711.355 625.845C700.805 625.845 692.214 635.121 692.214 646.538V659.247L669.709 659.212L669.726 646.529C669.726 622.707 688.417 603.331 711.39 603.34C734.363 603.34 753.027 622.741 753.01 646.59V661.197H753.001Z" fill="black" stroke="black" stroke-linecap="round" stroke-linejoin="round"/>
<path d="M761.756 661.189L739.251 661.154V646.521C739.286 635.112 730.686 625.819 720.128 625.81C709.577 625.81 700.986 635.121 700.986 646.555V659.255L678.473 659.221V646.521C678.49 622.698 697.172 603.323 720.136 603.331C743.101 603.331 761.782 622.733 761.765 646.581V661.189H761.756Z" fill="#00D2FF" stroke="black" stroke-linecap="round" stroke-linejoin="round"/>
<path d="M668.738 740.511L773.885 740.554L773.92 658.484C773.92 658.484 755.888 649.165 721.351 649.139C686.822 649.113 668.773 658.432 668.773 658.432L668.738 740.511Z" fill="#00D2FF" stroke="black" stroke-linecap="round" stroke-linejoin="round"/>
<path d="M668.782 658.432L656.35 665.827L656.324 740.511H668.747L668.782 658.441V658.432Z" fill="black" stroke="black" stroke-linecap="round" stroke-linejoin="round"/>
<path d="M725.017 694.842H721.324H717.631L713.93 714.807H721.316H728.693L725.009 694.842H725.017Z" fill="black" stroke="black" stroke-linecap="round" stroke-linejoin="round"/>
<path d="M720.537 697.694C726.033 698.136 730.844 694.036 731.286 688.54C731.729 683.043 727.628 678.232 722.132 677.79C716.636 677.348 711.824 681.448 711.382 686.944C710.94 692.441 715.041 697.252 720.537 697.694Z" fill="black" stroke="black" stroke-linecap="round" stroke-linejoin="round"/>
<path d="M1072.82 613.361H936.604V740.545H1072.82V613.361Z" fill="#B1FF05" stroke="black" stroke-linecap="round" stroke-linejoin="round"/>
<path d="M903.436 567.459H909.582V509.333H903.436V567.459Z" fill="black" stroke="black" stroke-linecap="round" stroke-linejoin="round"/>
<path d="M894.489 740.476H936.604V613.292H894.489V740.476Z" fill="black" stroke="black" stroke-linecap="round" stroke-linejoin="round"/>
<path d="M906.772 741.768C906.772 751.243 873.275 758.924 831.95 758.924C790.624 758.924 757.127 751.243 757.127 741.768V717.971H906.781V741.768H906.772Z" fill="#FFC010" stroke="black" stroke-linecap="round" stroke-linejoin="round"/>
<path d="M831.942 735.127C873.265 735.127 906.765 727.446 906.765 717.971C906.765 708.496 873.265 700.815 831.942 700.815C790.618 700.815 757.119 708.496 757.119 717.971C757.119 727.446 790.618 735.127 831.942 735.127Z" fill="#FFC010" stroke="black" stroke-linecap="round" stroke-linejoin="round"/>
<path d="M1109.52 397.51L1117.57 394.251L1040.88 317.469L1032.82 320.728L1031.04 429.23L1039.1 425.979L1056 406.292L1072.66 447.479L1092.27 439.547L1075.62 398.36L1109.52 397.51Z" fill="black" stroke="black" stroke-linecap="round" stroke-linejoin="round"/>
<path d="M1117.57 394.251L1040.88 317.469L1039.1 425.979L1064.06 403.032L1080.72 444.219L1100.34 436.296L1083.68 395.1L1117.57 394.251Z" fill="#B1FF05" stroke="black" stroke-linecap="round" stroke-linejoin="round"/>
<path d="M831.941 728.096C866.479 728.096 894.48 723.563 894.48 717.971V547.242H769.402V717.971C769.402 723.563 797.403 728.096 831.941 728.096Z" fill="#FF9F10" stroke="black" stroke-linecap="round" stroke-linejoin="round"/>
<path d="M782.059 558.712H894.48V547.242H769.402V717.971C769.402 720.268 774.118 722.384 782.059 724.083V558.712Z" fill="black" stroke="black" stroke-linecap="round" stroke-linejoin="round"/>
<path d="M906.772 571.039C906.772 580.514 873.275 588.195 831.95 588.195C790.624 588.195 757.127 580.514 757.127 571.039V547.242H906.781V571.039H906.772Z" fill="#FFC010" stroke="black" stroke-linecap="round" stroke-linejoin="round"/>
<path d="M951.436 667.049C954.308 667.049 956.637 664.72 956.637 661.847C956.637 658.975 954.308 656.646 951.436 656.646C948.563 656.646 946.234 658.975 946.234 661.847C946.234 664.72 948.563 667.049 951.436 667.049Z" fill="black" stroke="black" stroke-linecap="round" stroke-linejoin="round"/>
<path d="M1053.32 642.134V718.786C1053.32 724.369 1048.8 728.989 1043.12 728.989C1037.44 728.989 1032.92 724.464 1032.92 718.786V683.537C1032.92 677.955 1028.39 673.334 1022.71 673.334C1017.04 673.334 1012.51 677.859 1012.51 683.537V695.57C1012.51 701.153 1007.98 705.774 1002.31 705.774C996.628 705.774 992.103 701.248 992.103 695.57V635.129C992.103 629.546 987.578 624.926 981.9 624.926C976.221 624.926 971.696 629.451 971.696 635.129V715.717C971.696 721.3 967.171 725.921 961.493 725.921C955.814 725.921 951.289 721.395 951.289 715.717V663" stroke="black" stroke-linecap="round" stroke-linejoin="round"/>
<path d="M951.435 664.83C953.082 664.83 954.417 663.494 954.417 661.847C954.417 660.2 953.082 658.865 951.435 658.865C949.788 658.865 948.453 660.2 948.453 661.847C948.453 663.494 949.788 664.83 951.435 664.83Z" fill="white" stroke="white" stroke-linecap="round" stroke-linejoin="round"/>
<path d="M1053.32 643.4C1056.2 643.4 1058.53 641.071 1058.53 638.198C1058.53 635.326 1056.2 632.997 1053.32 632.997C1050.45 632.997 1048.12 635.326 1048.12 638.198C1048.12 641.071 1050.45 643.4 1053.32 643.4Z" fill="black" stroke="black" stroke-linecap="round" stroke-linejoin="round"/>
<path d="M1053.32 641.18C1054.97 641.18 1056.31 639.845 1056.31 638.198C1056.31 636.551 1054.97 635.216 1053.32 635.216C1051.68 635.216 1050.34 636.551 1050.34 638.198C1050.34 639.845 1051.68 641.18 1053.32 641.18Z" fill="white" stroke="white" stroke-linecap="round" stroke-linejoin="round"/>
<path d="M849.237 443.872C878.773 443.872 902.717 438.687 902.717 432.291C902.717 425.894 878.773 420.709 849.237 420.709C819.701 420.709 795.758 425.894 795.758 432.291C795.758 438.687 819.701 443.872 849.237 443.872Z" fill="white" stroke="black" stroke-linecap="round" stroke-linejoin="round"/>
<path d="M831.942 564.398C873.265 564.398 906.765 556.717 906.765 547.242C906.765 537.767 873.265 530.086 831.942 530.086C790.618 530.086 757.119 537.767 757.119 547.242C757.119 556.717 790.618 564.398 831.942 564.398Z" fill="#FFC010" stroke="black" stroke-linecap="round" stroke-linejoin="round"/>
<path d="M831.941 557.368C866.48 557.368 894.48 552.835 894.48 547.242C894.48 541.65 866.48 537.117 831.941 537.117C797.402 537.117 769.402 541.65 769.402 547.242C769.402 552.835 797.402 557.368 831.941 557.368Z" fill="black" stroke="black" stroke-linecap="round" stroke-linejoin="round"/>
<path d="M849.237 443.872C819.702 443.872 795.758 438.688 795.758 432.291V541.46C795.758 547.858 819.702 553.042 849.237 553.042C878.773 553.042 902.717 547.858 902.717 541.46V432.291C902.717 438.688 878.773 443.872 849.237 443.872Z" fill="#00ED64" stroke="black" stroke-linecap="round" stroke-linejoin="round"/>
<path d="M808.578 547.242V439.807C800.585 437.787 795.748 435.16 795.748 432.282V541.451C795.748 544.408 800.88 547.112 809.315 549.158C808.838 548.534 808.57 547.893 808.57 547.242H808.578Z" fill="black" stroke="black" stroke-linecap="round" stroke-linejoin="round"/>
<path d="M795.748 486.871C795.748 493.269 819.692 498.453 849.228 498.453C878.763 498.453 902.707 493.269 902.707 486.871" stroke="black" stroke-linecap="round" stroke-linejoin="round"/>
<path d="M795.748 458.801C795.748 465.198 819.692 470.382 849.228 470.382C878.763 470.382 902.707 465.198 902.707 458.801" stroke="black" stroke-linecap="round" stroke-linejoin="round"/>
<path d="M795.748 514.941C795.748 521.339 819.692 526.523 849.228 526.523C878.763 526.523 902.707 521.339 902.707 514.941" stroke="black" stroke-linecap="round" stroke-linejoin="round"/>
<path d="M1152.56 521.53L1224.14 443.872L1149.92 506.61L1152.56 521.53Z" fill="black" stroke="black" stroke-linecap="round" stroke-linejoin="round"/>
<path d="M1224.14 443.872L1140.72 499.953L1121.16 488.492L1224.14 443.872L1149.92 506.61L1170.77 520.758L1224.14 443.872Z" fill="#00ED64"/>
<path d="M1224.14 443.872L1140.72 499.953L1121.16 488.492L1224.14 443.872ZM1224.14 443.872L1149.92 506.61L1170.77 520.758L1224.14 443.872Z" stroke="black" stroke-width="1.07" stroke-linecap="round" stroke-linejoin="round"/>
<path d="M1140.72 499.953L1152.56 521.53L1149.92 506.61L1224.14 443.872L1140.72 499.953Z" fill="black" stroke="black" stroke-linecap="round" stroke-linejoin="round"/>
<path d="M826.922 376.488C833.625 376.488 839.059 371.054 839.059 364.351C839.059 357.648 833.625 352.214 826.922 352.214C820.219 352.214 814.785 357.648 814.785 364.351C814.785 371.054 820.219 376.488 826.922 376.488Z" fill="white" stroke="black" stroke-linecap="round" stroke-linejoin="round"/>
<path d="M817.281 356.991C817.281 356.991 822.378 372.283 833.631 374.477C830.12 377.095 822.413 377.814 817.801 372.361C813.189 366.908 815.01 361.092 817.281 356.991Z" fill="black"/>
<path d="M833.77 435.498C839.463 435.498 844.078 433.457 844.078 430.938C844.078 428.42 839.463 426.378 833.77 426.378C828.078 426.378 823.463 428.42 823.463 430.938C823.463 433.457 828.078 435.498 833.77 435.498Z" fill="black" stroke="black" stroke-linecap="round" stroke-linejoin="round"/>
<path d="M795.748 541.451C782.277 541.451 771.354 530.528 771.354 517.057C771.354 503.585 782.277 492.662 795.748 492.662C782.277 492.662 771.354 481.739 771.354 468.267C771.354 454.795 782.277 443.872 795.748 443.872" stroke="black" stroke-linecap="round" stroke-linejoin="round"/>
<path d="M795.731 443.907C784.245 436.729 776.607 423.968 776.607 409.422C776.607 391.182 788.623 375.751 805.163 370.61" stroke="black" stroke-linecap="round" stroke-linejoin="round"/>
<path d="M1054.44 567.459H913.968C901.299 567.459 891.029 577.728 891.029 590.397V590.406C891.029 603.074 901.299 613.344 913.968 613.344H1054.44C1067.11 613.344 1077.38 603.074 1077.38 590.406V590.397C1077.38 577.728 1067.11 567.459 1054.44 567.459Z" fill="white" stroke="black" stroke-linecap="round" stroke-linejoin="round"/>
<path d="M907.146 595.564L920.011 590.414L907.146 585.222V579.5L927.978 588.204V592.625L907.146 601.311V595.572V595.564Z" fill="#00ED64" stroke="black" stroke-linecap="round" stroke-linejoin="round"/>
<path d="M907.146 595.564L920.011 590.414L907.146 585.222V579.5L927.978 588.204V592.625L907.146 601.311V595.572V595.564Z" fill="#00ED64" stroke="black" stroke-linecap="round" stroke-linejoin="round"/>
<path d="M986.691 590.397H1060.74" stroke="black" stroke-linecap="round" stroke-linejoin="round"/>
<path d="M941.381 590.397H970.284" stroke="black" stroke-linecap="round" stroke-linejoin="round"/>
<path d="M1164.01 737.476L1154.63 728.253C1154.55 728.174 1154.44 728.131 1154.33 728.131C1154.31 728.131 1154.29 728.131 1154.28 728.131C1151.77 728.435 1149.23 728.582 1146.71 728.582C1144.51 728.582 1142.29 728.469 1140.11 728.235C1140.09 728.235 1140.08 728.235 1140.07 728.235C1139.95 728.235 1139.82 728.287 1139.75 728.383L1131.84 737.32L1120.73 734.13L1112.94 731.183L1111.71 718.352C1111.7 718.222 1111.62 718.101 1111.52 718.032C1107.53 715.414 1103.85 712.353 1100.55 708.929C1100.47 708.842 1100.36 708.799 1100.24 708.799C1100.24 708.799 1100.23 708.799 1100.22 708.799C1100.1 708.799 1099.98 708.86 1099.9 708.955L1096.14 713.567L1088.49 710.68L1077.88 693.706L1085.24 683C1085.32 682.896 1085.34 682.757 1085.3 682.636C1083.98 678.128 1083.15 673.473 1082.83 668.8C1082.82 668.661 1082.75 668.531 1082.63 668.462L1072.34 662.168L1075.11 642.481L1087.9 638.935C1088.03 638.9 1088.13 638.814 1088.18 638.692C1090.03 634.523 1092.33 630.543 1095 626.868C1095.09 626.755 1095.11 626.608 1095.07 626.478L1091.14 614.757L1105.93 601.441L1113.76 604.398L1118.24 607.068C1118.31 607.111 1118.39 607.128 1118.46 607.128C1118.52 607.128 1118.59 607.111 1118.65 607.085C1120.01 606.426 1121.38 605.811 1122.72 605.273C1125.42 604.181 1128.25 603.262 1131.1 602.542C1131.24 602.508 1131.35 602.412 1131.4 602.282L1136.03 590.527L1156.09 589.825L1163.74 592.712L1161.79 601.996C1161.74 602.222 1161.89 602.447 1162.11 602.508C1166.33 603.557 1170.46 605.048 1174.37 606.92C1174.43 606.946 1174.49 606.964 1174.56 606.964C1174.63 606.964 1174.7 606.946 1174.77 606.912L1186.06 600.774L1193.85 603.713L1201.66 612.997L1198.19 626.365C1198.16 626.495 1198.19 626.625 1198.26 626.729C1200.83 630.231 1203.06 634.037 1204.88 638.034C1204.94 638.164 1205.05 638.25 1205.19 638.276L1217.91 640.86L1225.58 643.755L1221.87 660.174L1210.75 668.107C1210.64 668.185 1210.57 668.306 1210.56 668.436C1210.29 672.892 1209.55 677.339 1208.35 681.656C1208.32 681.786 1208.35 681.934 1208.43 682.046L1216.19 691.79L1206.85 709.345C1206.85 709.345 1193.64 708.305 1193.63 708.305C1193.51 708.305 1193.4 708.357 1193.32 708.444C1190.17 711.807 1186.63 714.833 1182.81 717.442C1182.7 717.52 1182.63 717.65 1182.62 717.789L1182.31 729.926L1180.43 730.689C1180.37 730.715 1180.31 730.749 1180.26 730.801L1171.73 740.424L1164.02 737.511L1164.01 737.476ZM1146.7 623.981C1141.22 623.981 1135.86 625.082 1130.77 627.249C1110.89 635.71 1101 659.039 1108.74 679.246C1114.74 694.929 1130.03 705.462 1146.79 705.462C1152.27 705.462 1157.63 704.361 1162.72 702.193C1182.61 693.732 1192.49 670.404 1184.76 650.196C1178.76 634.514 1163.46 623.972 1146.7 623.972V623.981Z" fill="black"/>
<path d="M1156.03 590.25L1163.25 592.98L1161.37 601.901C1161.27 602.36 1161.55 602.811 1162.01 602.924C1166.2 603.973 1170.29 605.447 1174.18 607.302C1174.3 607.362 1174.42 607.388 1174.55 607.388C1174.69 607.388 1174.84 607.354 1174.97 607.284L1186.09 601.242L1193.59 604.077L1201.18 613.101L1197.78 626.252C1197.71 626.504 1197.76 626.772 1197.91 626.98C1200.46 630.457 1202.67 634.236 1204.49 638.207C1204.6 638.458 1204.83 638.64 1205.1 638.701L1217.76 641.276L1225.07 644.033L1221.48 659.923L1210.48 667.751C1210.27 667.907 1210.14 668.141 1210.12 668.401C1209.85 672.822 1209.11 677.244 1207.92 681.535C1207.84 681.804 1207.9 682.09 1208.07 682.306L1215.65 691.825L1210.44 701.621L1206.58 708.877L1193.68 707.854C1193.68 707.854 1193.63 707.854 1193.61 707.854C1193.37 707.854 1193.14 707.95 1192.97 708.132C1189.83 711.478 1186.32 714.477 1182.54 717.069C1182.3 717.225 1182.16 717.486 1182.15 717.763L1181.85 729.614L1180.23 730.272C1180.11 730.324 1180 730.402 1179.91 730.498L1171.58 739.895L1164.23 737.121L1154.92 727.958C1154.75 727.802 1154.53 727.706 1154.31 727.706C1154.27 727.706 1154.24 727.706 1154.21 727.706C1151.72 728.001 1149.19 728.157 1146.69 728.157C1144.51 728.157 1142.3 728.044 1140.14 727.819C1140.11 727.819 1140.07 727.819 1140.05 727.819C1139.81 727.819 1139.56 727.923 1139.4 728.114L1131.67 736.844L1120.87 733.74L1113.33 730.897L1112.13 718.335C1112.1 718.075 1111.96 717.841 1111.74 717.694C1107.77 715.093 1104.12 712.05 1100.85 708.652C1100.68 708.478 1100.46 708.383 1100.22 708.383C1100.21 708.383 1100.2 708.383 1100.19 708.383C1099.94 708.392 1099.71 708.513 1099.56 708.704L1095.99 713.073L1088.77 710.342L1084.22 703.06L1078.39 693.732L1085.6 683.26C1085.75 683.043 1085.79 682.775 1085.72 682.523C1084.4 678.05 1083.57 673.421 1083.27 668.783C1083.25 668.505 1083.09 668.245 1082.85 668.098L1072.81 661.951L1073.05 660.226L1075.26 644.57L1075.5 642.836L1088.03 639.369C1088.28 639.299 1088.48 639.117 1088.59 638.883C1090.42 634.739 1092.7 630.786 1095.37 627.137C1095.53 626.911 1095.58 626.616 1095.49 626.348L1091.66 614.896L1092.96 613.726L1104.71 603.149L1106.03 601.962L1113.55 604.796L1118.02 607.466C1118.16 607.544 1118.31 607.588 1118.46 607.588C1118.59 607.588 1118.72 607.562 1118.84 607.501C1120.2 606.842 1121.56 606.235 1122.88 605.698C1125.57 604.614 1128.37 603.695 1131.21 602.985C1131.47 602.915 1131.7 602.724 1131.8 602.464L1136.33 590.969L1144.76 590.674L1156.03 590.284M1146.79 705.93C1152.33 705.93 1157.74 704.82 1162.89 702.627C1172.68 698.457 1180.38 690.715 1184.56 680.833C1188.75 670.941 1188.97 660.018 1185.16 650.075C1182.12 642.108 1176.79 635.398 1169.77 630.647C1162.91 626.018 1154.93 623.574 1146.71 623.574C1141.17 623.574 1135.76 624.683 1130.61 626.876C1120.82 631.046 1113.12 638.788 1108.94 648.671C1104.75 658.562 1104.53 669.485 1108.34 679.428C1111.38 687.395 1116.71 694.105 1123.73 698.856C1130.59 703.485 1138.57 705.93 1146.79 705.93ZM1156.17 589.409L1144.74 589.808L1135.74 590.12L1131.01 602.144C1128.17 602.863 1125.35 603.773 1122.57 604.892C1121.18 605.455 1119.81 606.071 1118.48 606.712L1113.94 604.007L1105.86 600.956L1093.37 612.191L1104.13 602.499L1092.38 613.075L1093.37 612.182L1090.65 614.627L1094.67 626.616C1091.95 630.335 1089.66 634.332 1087.8 638.528L1074.73 642.151L1073.76 648.983L1074.41 644.449L1072.2 660.105L1073.76 648.983L1071.88 662.394L1082.4 668.835C1082.7 673.481 1083.53 678.154 1084.89 682.766L1077.36 693.706L1083.49 703.511L1088.2 711.044L1096.28 714.096L1100.23 709.241C1103.58 712.726 1107.29 715.786 1111.28 718.404L1112.53 731.503L1120.61 734.555L1131.98 737.823L1140.07 728.677C1142.27 728.903 1144.49 729.024 1146.72 729.024C1149.25 729.024 1151.79 728.877 1154.34 728.565L1163.78 737.849L1171.86 740.901L1180.59 731.061L1182.74 730.194L1183.06 717.772C1186.95 715.119 1190.49 712.076 1193.64 708.712L1207.11 709.779L1211.24 702.029L1216.72 691.73L1208.79 681.76C1209.98 677.434 1210.74 672.97 1211.01 668.445L1222.27 660.417L1226.11 643.469L1218.03 640.418L1205.3 637.834C1203.44 633.751 1201.2 629.954 1198.64 626.46L1202.16 612.876L1194.13 603.34L1186.06 600.288L1174.59 606.521C1170.64 604.632 1166.51 603.141 1162.25 602.083L1164.28 592.434L1156.2 589.383L1156.17 589.409ZM1146.79 705.063C1130.62 705.063 1115.31 695.241 1109.14 679.125C1101.45 658.995 1111.14 636.109 1130.95 627.683C1136.1 625.489 1141.44 624.449 1146.71 624.449C1162.88 624.449 1178.19 634.271 1184.36 650.387C1192.05 670.517 1182.36 693.403 1162.55 701.829C1157.4 704.022 1152.06 705.063 1146.79 705.063Z" fill="black"/>
<path d="M1162.72 731.304C1162.64 731.226 1162.53 731.183 1162.42 731.183C1162.4 731.183 1162.38 731.183 1162.36 731.183C1159.86 731.486 1157.32 731.633 1154.79 731.633C1152.6 731.633 1150.38 731.521 1148.19 731.287C1148.17 731.287 1148.16 731.287 1148.15 731.287C1148.02 731.287 1147.9 731.339 1147.83 731.434L1139.93 740.363L1121.02 734.217L1119.79 721.404C1119.78 721.274 1119.7 721.153 1119.6 721.083C1115.61 718.465 1111.93 715.405 1108.63 711.981C1108.55 711.894 1108.43 711.851 1108.32 711.851C1108.3 711.851 1108.28 711.851 1108.26 711.851L1096.5 713.61L1085.97 696.749L1093.33 686.043C1093.41 685.939 1093.43 685.8 1093.39 685.679C1092.07 681.171 1091.23 676.516 1090.92 671.843C1090.91 671.704 1090.83 671.574 1090.71 671.505L1080.43 665.211L1083.2 645.524L1095.99 641.978C1096.11 641.943 1096.22 641.857 1096.27 641.735C1098.12 637.565 1100.41 633.586 1103.09 629.911C1103.18 629.798 1103.2 629.651 1103.15 629.52L1099.23 617.8L1114 604.502L1126.36 610.145C1126.42 610.171 1126.48 610.18 1126.54 610.18C1126.6 610.18 1126.67 610.162 1126.73 610.136C1128.09 609.478 1129.46 608.862 1130.8 608.325C1133.5 607.232 1136.32 606.313 1139.18 605.594C1139.32 605.559 1139.42 605.464 1139.48 605.334L1144.11 593.579L1163.98 592.885L1169.91 605.325C1169.96 605.447 1170.07 605.525 1170.19 605.559C1174.41 606.608 1178.54 608.099 1182.45 609.972C1182.51 609.998 1182.57 610.015 1182.64 610.015C1182.71 610.015 1182.78 609.998 1182.85 609.963L1194.07 603.86L1209.74 616.101L1206.29 629.416C1206.25 629.547 1206.29 629.677 1206.36 629.781C1208.92 633.283 1211.15 637.089 1212.97 641.085C1213.03 641.215 1213.15 641.302 1213.29 641.328L1225.73 643.859L1229.87 663.304L1218.84 671.167C1218.74 671.245 1218.67 671.366 1218.66 671.496C1218.39 675.943 1217.65 680.399 1216.45 684.716C1216.41 684.846 1216.45 684.994 1216.53 685.107L1224.29 694.851L1214.95 712.405C1214.95 712.405 1201.74 711.356 1201.73 711.356C1201.61 711.356 1201.5 711.408 1201.42 711.495C1198.26 714.859 1194.72 717.884 1190.91 720.494C1190.8 720.572 1190.73 720.702 1190.72 720.84L1190.41 732.977L1171.98 740.424L1162.74 731.339L1162.72 731.304ZM1154.79 627.032C1149.31 627.032 1143.95 628.133 1138.86 630.301C1118.97 638.762 1109.09 662.09 1116.82 682.298C1122.82 697.98 1138.12 708.522 1154.88 708.522C1160.36 708.522 1165.72 707.421 1170.81 705.253C1190.69 696.792 1200.58 673.464 1192.84 653.256C1186.84 637.574 1171.55 627.032 1154.79 627.032Z" fill="#B45AF2"/>
<path d="M1163.71 593.318L1169.52 605.507C1169.64 605.741 1169.84 605.915 1170.1 605.975C1174.29 607.024 1178.38 608.498 1182.27 610.353C1182.39 610.414 1182.51 610.44 1182.64 610.44C1182.78 610.44 1182.93 610.405 1183.06 610.336L1194.03 604.372L1197.47 607.059L1209.25 616.266L1205.87 629.304C1205.8 629.555 1205.86 629.824 1206.01 630.032C1208.56 633.517 1210.77 637.288 1212.58 641.258C1212.7 641.51 1212.93 641.692 1213.2 641.753L1225.37 644.223L1226.89 651.341L1229.38 663.104L1218.59 670.803C1218.37 670.959 1218.24 671.193 1218.23 671.453C1217.96 675.874 1217.22 680.295 1216.02 684.586C1215.95 684.855 1216.01 685.141 1216.18 685.358L1223.76 694.877L1218.55 704.673L1214.69 711.929L1201.78 710.906C1201.78 710.906 1201.74 710.906 1201.71 710.906C1201.47 710.906 1201.24 711.001 1201.08 711.183C1197.94 714.529 1194.43 717.529 1190.64 720.121C1190.41 720.277 1190.27 720.537 1190.26 720.814L1189.96 732.665L1188.34 733.324L1173.68 739.245L1172.05 739.904L1163.01 731.018C1162.85 730.862 1162.63 730.766 1162.41 730.766C1162.37 730.766 1162.34 730.766 1162.3 730.766C1159.81 731.061 1157.29 731.217 1154.79 731.217C1152.61 731.217 1150.4 731.105 1148.23 730.879C1148.21 730.879 1148.17 730.879 1148.15 730.879C1147.9 730.879 1147.66 730.983 1147.5 731.174L1139.79 739.895L1131.98 737.355L1121.43 733.922L1120.22 721.387C1120.2 721.126 1120.06 720.892 1119.83 720.745C1115.87 718.144 1112.21 715.102 1108.94 711.703C1108.78 711.53 1108.55 711.434 1108.32 711.434C1108.28 711.434 1108.23 711.434 1108.19 711.443L1096.71 713.16L1092.82 706.927L1086.48 696.784L1093.69 686.312C1093.83 686.095 1093.88 685.826 1093.81 685.575C1092.49 681.101 1091.66 676.472 1091.35 671.834C1091.34 671.557 1091.18 671.297 1090.94 671.149L1080.9 665.003L1081.14 663.287C1081.14 663.287 1081.14 663.278 1081.14 663.269L1083.34 647.613C1083.34 647.613 1083.34 647.604 1083.34 647.595L1083.59 645.879L1096.11 642.411C1096.36 642.342 1096.57 642.16 1096.68 641.926C1098.51 637.782 1100.79 633.838 1103.46 630.179C1103.62 629.954 1103.66 629.659 1103.58 629.39L1099.75 617.939L1101.05 616.768L1114.09 605.022L1126.2 610.544C1126.31 610.596 1126.43 610.622 1126.56 610.622C1126.69 610.622 1126.82 610.596 1126.94 610.535C1128.29 609.876 1129.65 609.27 1130.98 608.732C1133.67 607.648 1136.47 606.73 1139.3 606.019C1139.57 605.949 1139.8 605.759 1139.9 605.498L1144.43 594.003L1152.86 593.709L1163.72 593.327M1154.88 708.955C1160.42 708.955 1165.83 707.846 1170.98 705.652C1180.77 701.482 1188.47 693.75 1192.65 683.858C1196.84 673.967 1197.06 663.044 1193.25 653.1C1190.21 645.133 1184.88 638.424 1177.85 633.673C1171 629.044 1163.02 626.599 1154.79 626.599C1149.25 626.599 1143.85 627.709 1138.7 629.902C1128.91 634.072 1121.21 641.813 1117.02 651.696C1112.84 661.587 1112.62 672.51 1116.43 682.454C1119.47 690.421 1124.8 697.131 1131.82 701.881C1138.68 706.51 1146.65 708.955 1154.88 708.955ZM1164.26 592.434L1152.83 592.833L1143.83 593.145L1139.09 605.169C1136.26 605.889 1133.44 606.799 1130.66 607.917C1129.26 608.481 1127.9 609.096 1126.57 609.738L1113.95 603.981L1100.47 616.109L1112.23 605.533L1098.76 617.661L1102.77 629.651C1100.06 633.37 1097.76 637.366 1095.91 641.562L1082.83 645.186L1081.87 652.017L1082.51 647.483L1080.31 663.139L1081.87 652.017L1079.98 665.428L1090.5 671.869C1090.81 676.515 1091.63 681.188 1092.99 685.8L1085.47 696.74L1092.11 707.369L1096.3 714.087L1108.34 712.284C1111.68 715.769 1115.39 718.829 1119.38 721.447L1120.64 734.546L1131.73 738.153L1140.08 740.866L1148.17 731.72C1150.37 731.946 1152.59 732.067 1154.82 732.067C1157.35 732.067 1159.89 731.92 1162.44 731.607L1171.88 740.892L1174.03 740.025L1188.69 734.104L1190.84 733.237L1191.16 720.814C1195.05 718.162 1198.59 715.119 1201.75 711.755L1215.22 712.822L1219.34 705.071L1224.82 694.773L1216.89 684.803C1218.09 680.477 1218.84 676.013 1219.12 671.487L1230.38 663.46L1227.76 651.132L1226.13 643.452L1213.41 640.868C1211.54 636.785 1209.31 632.988 1206.75 629.494L1210.27 615.91L1198.04 606.357L1194.16 603.323L1182.69 609.556C1178.75 607.666 1174.61 606.175 1170.36 605.117L1164.3 592.417L1164.26 592.434ZM1154.88 708.088C1138.7 708.088 1123.4 698.266 1117.23 682.15C1109.53 662.021 1119.23 639.134 1139.03 630.708C1144.19 628.515 1149.53 627.475 1154.79 627.475C1170.97 627.475 1186.28 637.297 1192.44 653.412C1200.14 673.542 1190.45 696.428 1170.64 704.855C1165.48 707.048 1160.14 708.088 1154.88 708.088Z" fill="black"/>
<path d="M1163.88 713.966L1157.75 707.941C1157.67 707.863 1157.56 707.82 1157.45 707.82C1157.43 707.82 1157.41 707.82 1157.39 707.82C1155.76 708.019 1154.09 708.114 1152.44 708.114C1151.01 708.114 1149.56 708.036 1148.13 707.889C1148.11 707.889 1148.1 707.889 1148.08 707.889C1147.96 707.889 1147.84 707.941 1147.76 708.036L1142.64 713.827L1135.44 711.755L1130.43 709.857L1129.64 701.534C1129.63 701.404 1129.55 701.283 1129.45 701.214C1126.84 699.506 1124.43 697.503 1122.28 695.267C1122.2 695.18 1122.09 695.137 1121.96 695.137C1121.96 695.137 1121.96 695.137 1121.95 695.137C1121.83 695.137 1121.7 695.197 1121.63 695.293L1119.22 698.232L1114.35 696.394L1107.47 685.384L1112.25 678.44C1112.32 678.336 1112.34 678.197 1112.31 678.076C1111.44 675.128 1110.89 672.086 1110.69 669.034C1110.69 668.895 1110.61 668.765 1110.49 668.696L1103.83 664.613L1105.61 651.895L1113.92 649.598C1114.04 649.563 1114.14 649.477 1114.2 649.355C1115.4 646.633 1116.9 644.033 1118.65 641.623C1118.74 641.51 1118.76 641.362 1118.71 641.232L1116.17 633.638L1125.73 625.03L1130.79 626.937L1133.7 628.68C1133.77 628.723 1133.85 628.74 1133.93 628.74C1133.99 628.74 1134.06 628.723 1134.12 628.697C1135.01 628.263 1135.91 627.865 1136.78 627.509C1138.55 626.798 1140.39 626.192 1142.26 625.723C1142.4 625.689 1142.5 625.593 1142.55 625.463L1145.55 617.843L1158.58 617.392L1163.45 619.23L1162.2 625.195C1162.14 625.42 1162.29 625.645 1162.52 625.706C1165.27 626.391 1167.97 627.362 1170.53 628.593C1170.59 628.619 1170.65 628.636 1170.72 628.636C1170.79 628.636 1170.86 628.619 1170.93 628.584L1178.28 624.588L1183.29 626.478L1188.34 632.477L1186.09 641.172C1186.05 641.302 1186.09 641.432 1186.16 641.536C1187.84 643.833 1189.3 646.312 1190.48 648.922C1190.54 649.052 1190.66 649.139 1190.8 649.165L1199.14 650.864L1204.03 652.71L1201.63 663.304L1194.39 668.471C1194.28 668.549 1194.21 668.67 1194.2 668.8C1194.03 671.713 1193.54 674.617 1192.76 677.443C1192.72 677.573 1192.76 677.72 1192.83 677.833L1197.86 684.153L1191.83 695.492C1191.83 695.492 1183.25 694.816 1183.24 694.816C1183.12 694.816 1183 694.868 1182.92 694.955C1180.86 697.157 1178.55 699.133 1176.06 700.832C1175.95 700.91 1175.88 701.04 1175.87 701.179L1175.66 709.155L1168.85 715.864L1163.89 713.992L1163.88 713.966ZM1152.44 639.49C1148.82 639.49 1145.28 640.218 1141.93 641.649C1128.81 647.231 1122.29 662.619 1127.39 675.952C1131.35 686.294 1141.43 693.247 1152.5 693.247C1156.11 693.247 1159.65 692.519 1163 691.097C1176.12 685.514 1182.64 670.126 1177.54 656.793C1173.58 646.451 1163.5 639.499 1152.44 639.499V639.49Z" fill="black"/>
<path d="M1158.51 617.817L1162.94 619.49L1161.77 625.091C1161.67 625.55 1161.95 626.001 1162.41 626.114C1165.14 626.798 1167.81 627.752 1170.34 628.966C1170.46 629.026 1170.58 629.052 1170.71 629.052C1170.85 629.052 1171 629.018 1171.13 628.948L1178.31 625.047L1183.02 626.824L1187.86 632.563L1185.67 641.042C1185.6 641.293 1185.65 641.562 1185.8 641.77C1187.47 644.033 1188.91 646.495 1190.09 649.078C1190.2 649.329 1190.43 649.511 1190.7 649.572L1198.98 651.254L1203.52 652.962L1201.24 663.018L1194.13 668.089C1193.91 668.245 1193.78 668.479 1193.76 668.739C1193.59 671.617 1193.1 674.496 1192.33 677.296C1192.25 677.564 1192.31 677.851 1192.49 678.067L1197.33 684.162L1194.01 690.412L1191.57 694.998L1183.3 694.348C1183.3 694.348 1183.26 694.348 1183.23 694.348C1183 694.348 1182.76 694.443 1182.6 694.625C1180.55 696.801 1178.26 698.76 1175.8 700.442C1175.57 700.598 1175.43 700.858 1175.42 701.136L1175.22 708.929L1168.73 715.318L1164.11 713.576L1158.05 707.611C1157.88 707.455 1157.66 707.36 1157.44 707.36C1157.4 707.36 1157.37 707.36 1157.34 707.36C1155.71 707.551 1154.07 707.655 1152.44 707.655C1151.02 707.655 1149.59 707.577 1148.17 707.429C1148.15 707.429 1148.11 707.429 1148.09 707.429C1147.84 707.429 1147.6 707.533 1147.44 707.724L1142.49 713.316L1135.6 711.33L1130.84 709.536L1130.07 701.482C1130.04 701.222 1129.91 700.988 1129.68 700.841C1127.11 699.15 1124.71 697.165 1122.59 694.955C1122.42 694.781 1122.2 694.686 1121.97 694.686C1121.96 694.686 1121.94 694.686 1121.93 694.686C1121.68 694.695 1121.45 694.816 1121.3 695.007L1119.1 697.703L1114.66 696.03L1108.01 685.384L1112.62 678.674C1112.77 678.457 1112.81 678.189 1112.74 677.937C1111.88 675.024 1111.35 672.008 1111.15 668.991C1111.13 668.713 1110.97 668.453 1110.73 668.306L1104.31 664.379L1106.01 652.225L1114.04 650.005C1114.29 649.936 1114.5 649.754 1114.61 649.52C1115.8 646.824 1117.28 644.249 1119.02 641.865C1119.18 641.64 1119.23 641.345 1119.14 641.076L1116.69 633.751L1125.84 625.507L1130.57 627.293L1133.49 629.026C1133.63 629.104 1133.77 629.148 1133.93 629.148C1134.06 629.148 1134.19 629.122 1134.31 629.061C1135.19 628.636 1136.08 628.237 1136.95 627.891C1138.7 627.18 1140.52 626.59 1142.36 626.122C1142.63 626.053 1142.86 625.862 1142.96 625.602L1145.86 618.242L1158.52 617.8M1152.52 693.654C1156.19 693.654 1159.78 692.917 1163.19 691.47C1169.68 688.704 1174.79 683.572 1177.56 677.018C1180.34 670.464 1180.48 663.217 1177.96 656.62C1173.94 646.104 1163.69 639.048 1152.45 639.048C1148.77 639.048 1145.18 639.785 1141.77 641.241C1135.28 644.007 1130.18 649.139 1127.4 655.692C1124.62 662.246 1124.48 669.494 1127 676.091C1131.02 686.606 1141.27 693.663 1152.51 693.663M1158.66 616.933L1145.26 617.401L1142.16 625.29C1140.3 625.758 1138.45 626.356 1136.62 627.093C1135.71 627.466 1134.81 627.865 1133.94 628.289L1130.96 626.512L1125.66 624.51L1115.69 633.482L1118.32 641.345C1116.55 643.79 1115.04 646.408 1113.82 649.156L1105.24 651.531L1103.38 664.812L1110.28 669.043C1110.48 672.094 1111.02 675.154 1111.91 678.18L1106.98 685.358L1114.09 696.732L1119.38 698.734L1121.97 695.553C1124.17 697.841 1126.6 699.853 1129.21 701.569L1130.04 710.16L1135.33 712.163L1142.79 714.304L1148.09 708.305C1149.53 708.452 1150.99 708.53 1152.45 708.53C1154.11 708.53 1155.78 708.435 1157.45 708.236L1163.65 714.33L1168.94 716.333L1176.08 709.311L1176.29 701.162C1178.84 699.419 1181.16 697.425 1183.23 695.223L1192.06 695.926L1194.77 690.837L1198.36 684.084L1193.16 677.547C1193.94 674.712 1194.44 671.782 1194.62 668.817L1202.01 663.555L1204.52 652.433L1199.22 650.43L1190.88 648.731C1189.65 646.052 1188.19 643.556 1186.51 641.267L1188.81 632.355L1183.54 626.096L1178.24 624.094L1170.72 628.185C1168.13 626.946 1165.41 625.966 1162.62 625.273L1163.96 618.944L1158.66 616.942V616.933ZM1152.51 692.796C1141.9 692.796 1131.86 686.355 1127.81 675.779C1122.75 662.576 1129.12 647.561 1142.11 642.03C1145.49 640.591 1149 639.906 1152.45 639.906C1163.06 639.906 1173.1 646.347 1177.14 656.923C1182.2 670.126 1175.83 685.141 1162.84 690.672C1159.46 692.111 1155.95 692.787 1152.51 692.787V692.796Z" fill="black"/>
<path d="M1163.05 709.935C1162.97 709.857 1162.86 709.813 1162.74 709.813C1162.73 709.813 1162.71 709.813 1162.69 709.813C1161.06 710.013 1159.4 710.108 1157.75 710.108C1156.32 710.108 1154.86 710.03 1153.43 709.883C1153.41 709.883 1153.41 709.883 1153.39 709.883C1153.27 709.883 1153.15 709.935 1153.07 710.03L1147.95 715.812L1135.74 711.842L1134.94 703.528C1134.93 703.398 1134.85 703.277 1134.75 703.208C1132.15 701.5 1129.73 699.497 1127.58 697.261C1127.5 697.174 1127.38 697.131 1127.27 697.131C1127.25 697.131 1127.23 697.131 1127.21 697.131L1119.6 698.275L1112.79 687.386L1117.57 680.443C1117.65 680.339 1117.66 680.2 1117.63 680.078C1116.76 677.131 1116.22 674.088 1116.02 671.037C1116.01 670.898 1115.93 670.768 1115.81 670.699L1109.15 666.615L1110.94 653.898L1119.24 651.601C1119.36 651.566 1119.47 651.479 1119.52 651.358C1120.72 648.636 1122.22 646.035 1123.97 643.625C1124.06 643.512 1124.08 643.365 1124.04 643.235L1121.5 635.641L1131.04 627.05L1139.06 630.708C1139.12 630.734 1139.18 630.743 1139.24 630.743C1139.3 630.743 1139.37 630.725 1139.43 630.699C1140.33 630.266 1141.23 629.867 1142.09 629.512C1143.86 628.801 1145.71 628.194 1147.57 627.726C1147.71 627.691 1147.81 627.596 1147.87 627.466L1150.87 619.846L1163.7 619.395L1167.55 627.466C1167.61 627.587 1167.72 627.665 1167.84 627.7C1170.6 628.385 1173.29 629.356 1175.85 630.587C1175.91 630.613 1175.97 630.63 1176.04 630.63C1176.11 630.63 1176.18 630.613 1176.25 630.578L1183.52 626.625L1193.64 634.531L1191.4 643.166C1191.37 643.296 1191.4 643.426 1191.47 643.53C1193.15 645.818 1194.61 648.306 1195.8 650.916C1195.86 651.046 1195.97 651.132 1196.11 651.158L1204.18 652.797L1206.85 665.358L1199.7 670.456C1199.59 670.534 1199.53 670.655 1199.52 670.785C1199.34 673.689 1198.86 676.602 1198.07 679.428C1198.03 679.558 1198.07 679.706 1198.15 679.818L1203.18 686.138L1197.14 697.477C1197.14 697.477 1188.57 696.801 1188.55 696.801C1188.43 696.801 1188.32 696.853 1188.24 696.94C1186.18 699.142 1183.86 701.118 1181.37 702.817C1181.26 702.895 1181.19 703.025 1181.18 703.164L1180.98 711.027L1169.07 715.838L1163.08 709.943L1163.05 709.935ZM1157.74 641.492C1154.13 641.492 1150.59 642.221 1147.23 643.651C1134.12 649.234 1127.6 664.622 1132.7 677.955C1136.66 688.297 1146.74 695.249 1157.8 695.249C1161.42 695.249 1164.95 694.521 1168.31 693.099C1181.42 687.517 1187.94 672.129 1182.85 658.796C1178.88 648.454 1168.8 641.501 1157.74 641.501V641.492Z" fill="#F3C4EF"/>
<path d="M1163.41 619.828L1167.14 627.648C1167.25 627.882 1167.46 628.055 1167.71 628.116C1170.44 628.801 1173.11 629.755 1175.64 630.968C1175.76 631.029 1175.89 631.055 1176.02 631.055C1176.15 631.055 1176.3 631.02 1176.43 630.951L1183.46 627.136L1185.56 628.775L1193.13 634.687L1190.96 643.053C1190.89 643.304 1190.94 643.573 1191.1 643.781C1192.76 646.044 1194.2 648.506 1195.38 651.089C1195.49 651.341 1195.73 651.523 1196 651.583L1203.79 653.17L1204.74 657.652L1206.35 665.176L1199.42 670.109C1199.21 670.265 1199.08 670.499 1199.06 670.759C1198.88 673.637 1198.4 676.515 1197.63 679.316C1197.55 679.584 1197.61 679.87 1197.78 680.087L1202.63 686.181L1199.3 692.432L1196.86 697.018L1188.59 696.368C1188.59 696.368 1188.55 696.368 1188.52 696.368C1188.29 696.368 1188.06 696.463 1187.89 696.645C1185.85 698.821 1183.56 700.78 1181.1 702.462C1180.86 702.618 1180.72 702.878 1180.71 703.156L1180.51 710.732L1179.63 711.088L1170.02 714.971L1169.13 715.327L1163.34 709.631C1163.18 709.475 1162.96 709.38 1162.73 709.38C1162.7 709.38 1162.67 709.38 1162.63 709.38C1161.01 709.571 1159.36 709.675 1157.73 709.675C1156.31 709.675 1154.88 709.597 1153.46 709.449C1153.43 709.449 1153.4 709.449 1153.37 709.449C1153.13 709.449 1152.89 709.553 1152.72 709.744L1147.8 715.318L1142.86 713.714L1136.12 711.521L1135.35 703.494C1135.32 703.234 1135.18 703 1134.96 702.852C1132.38 701.162 1129.99 699.176 1127.87 696.966C1127.7 696.792 1127.48 696.697 1127.24 696.697C1127.2 696.697 1127.16 696.697 1127.11 696.706L1119.78 697.807L1115.62 691.149L1113.28 687.395L1117.89 680.685C1118.04 680.469 1118.08 680.2 1118.01 679.948C1117.15 677.036 1116.62 674.019 1116.42 671.002C1116.4 670.725 1116.24 670.464 1116 670.317L1109.58 666.39L1109.71 665.454L1111.15 655.181C1111.15 655.181 1111.15 655.181 1111.15 655.172L1111.28 654.236L1119.31 652.017C1119.56 651.947 1119.77 651.765 1119.87 651.531C1121.07 648.835 1122.55 646.26 1124.29 643.876C1124.45 643.651 1124.5 643.356 1124.41 643.088L1121.96 635.762L1130.37 628.185L1131.08 627.553L1138.83 631.098C1138.95 631.15 1139.07 631.176 1139.2 631.176C1139.33 631.176 1139.46 631.15 1139.58 631.09C1140.46 630.656 1141.35 630.266 1142.21 629.919C1143.97 629.208 1145.79 628.619 1147.63 628.151C1147.9 628.081 1148.13 627.891 1148.23 627.631L1151.13 620.271L1156.47 620.089L1163.4 619.846M1157.78 695.691C1161.46 695.691 1165.05 694.955 1168.46 693.507C1174.95 690.741 1180.06 685.609 1182.83 679.056C1185.61 672.502 1185.75 665.254 1183.23 658.657C1179.21 648.142 1168.96 641.085 1157.72 641.085C1154.04 641.085 1150.45 641.822 1147.04 643.278C1140.55 646.044 1135.44 651.176 1132.67 657.73C1129.89 664.283 1129.75 671.531 1132.27 678.128C1136.29 688.644 1146.54 695.7 1157.78 695.7M1163.94 618.97L1156.44 619.23L1150.54 619.438L1147.43 627.327C1145.58 627.795 1143.72 628.393 1141.9 629.13C1140.98 629.503 1140.09 629.902 1139.22 630.327L1130.94 626.547L1122.09 634.505L1129.8 627.561L1120.96 635.519L1123.59 643.382C1121.82 645.827 1120.31 648.445 1119.09 651.193L1110.51 653.568L1109.88 658.05L1110.3 655.077L1108.85 665.35L1109.87 658.059L1108.63 666.858L1115.53 671.089C1115.73 674.14 1116.27 677.2 1117.16 680.226L1112.23 687.404L1114.87 691.634L1119.34 698.778L1127.23 697.599C1129.43 699.887 1131.86 701.898 1134.47 703.615L1135.3 712.206L1142.57 714.573L1148.05 716.35L1153.35 710.351C1154.79 710.498 1156.25 710.576 1157.72 710.576C1159.37 710.576 1161.04 710.481 1162.71 710.281L1168.91 716.376L1170.32 715.804L1179.93 711.92L1181.35 711.348L1181.56 703.199C1184.11 701.456 1186.43 699.463 1188.5 697.261L1197.33 697.963L1200.04 692.874L1203.63 686.121L1198.43 679.584C1199.21 676.75 1199.71 673.819 1199.89 670.855L1207.28 665.592L1205.56 657.504L1204.49 652.467L1196.15 650.768C1194.92 648.09 1193.46 645.593 1191.78 643.304L1194.08 634.392L1186.06 628.125L1183.51 626.131L1175.99 630.223C1173.4 628.983 1170.68 628.003 1167.89 627.31L1163.92 618.979L1163.94 618.97ZM1157.78 694.833C1147.17 694.833 1137.13 688.392 1133.09 677.816C1128.03 664.613 1134.4 649.598 1147.39 644.067C1150.77 642.628 1154.28 641.943 1157.72 641.943C1168.33 641.943 1178.37 648.384 1182.42 658.961C1187.48 672.164 1181.11 687.178 1168.12 692.709C1164.74 694.148 1161.23 694.825 1157.78 694.825V694.833Z" fill="black"/>
<path d="M1109.08 597.618L1074.12 540.16C1086.53 529.436 1094.62 513.788 1095.26 496.104C1096.49 462.338 1070.11 433.964 1036.35 432.741C1002.58 431.519 974.209 457.89 972.987 491.656C971.756 525.422 998.136 553.796 1031.9 555.019C1041 555.348 1049.71 553.658 1057.61 550.372L1092.5 607.709C1095.29 612.286 1101.26 613.743 1105.84 610.96C1110.42 608.169 1111.87 602.196 1109.09 597.618H1109.08ZM997.78 492.558C998.508 472.489 1015.37 456.807 1035.45 457.535C1055.52 458.263 1071.2 475.124 1070.47 495.202C1069.74 515.28 1052.88 530.953 1032.8 530.225C1012.73 529.497 997.052 512.635 997.78 492.558Z" fill="black" stroke="black" stroke-linecap="round" stroke-linejoin="round"/>
<path d="M978.796 509.324H909.582V567.45H978.796V509.324Z" fill="white" stroke="black" stroke-linecap="round" stroke-linejoin="round"/>
<path d="M1060.26 543.676L1076.85 533.582L1112.73 592.554C1115.52 597.131 1114.06 603.111 1109.49 605.896C1104.91 608.68 1098.93 607.225 1096.14 602.648L1060.26 543.676Z" fill="#00D2FF" stroke="black" stroke-linecap="round" stroke-linejoin="round"/>
<path d="M1040 427.627C1006.23 426.396 977.859 452.776 976.637 486.542C975.406 520.308 1001.79 548.681 1035.55 549.904C1069.32 551.135 1097.69 524.755 1098.91 490.989C1100.15 457.223 1073.77 428.849 1040 427.627ZM1036.44 525.275C1016.28 524.538 1000.53 507.599 1001.27 487.435C1002 467.27 1018.94 451.519 1039.11 452.255C1059.27 452.992 1075.02 469.932 1074.29 490.096C1073.55 510.26 1056.61 526.012 1036.44 525.275Z" fill="#00D2FF" stroke="black" stroke-linecap="round" stroke-linejoin="round"/>
<path d="M1096.52 312.163L1105.68 303.226L1114.85 294.296L1118 306.693L1121.16 319.099L1108.84 315.631L1096.52 312.163Z" fill="white" stroke="black" stroke-linecap="round" stroke-linejoin="round"/>
<path d="M1110.44 308.618L1121.16 319.099L1114.85 294.296L1110.44 308.618Z" fill="black"/>
<path d="M1112.13 308.184L1096.52 312.163" stroke="black" stroke-linecap="round" stroke-linejoin="round"/>
<path d="M1131.11 303.72C1131.11 303.72 1189.34 278.406 1187.03 218.338" stroke="black" stroke-linecap="round" stroke-linejoin="round"/>
<path d="M822.968 616.318C824.6 616.318 825.924 614.994 825.924 613.361C825.924 611.729 824.6 610.405 822.968 610.405C821.335 610.405 820.012 611.729 820.012 613.361C820.012 614.994 821.335 616.318 822.968 616.318Z" fill="black" stroke="black" stroke-linecap="round" stroke-linejoin="round"/>
<path d="M846.271 616.318C847.903 616.318 849.227 614.994 849.227 613.361C849.227 611.729 847.903 610.405 846.271 610.405C844.638 610.405 843.314 611.729 843.314 613.361C843.314 614.994 844.638 616.318 846.271 616.318Z" fill="black" stroke="black" stroke-linecap="round" stroke-linejoin="round"/>
<path d="M839.077 621.64C839.077 624.146 837.04 626.183 834.535 626.183C832.029 626.183 829.992 624.146 829.992 621.64" stroke="black" stroke-linecap="round" stroke-linejoin="round"/>
<path d="M864.78 481.167C866.413 481.167 867.737 479.843 867.737 478.211C867.737 476.578 866.413 475.254 864.78 475.254C863.148 475.254 861.824 476.578 861.824 478.211C861.824 479.843 863.148 481.167 864.78 481.167Z" fill="black" stroke="black" stroke-linecap="round" stroke-linejoin="round"/>
<path d="M888.081 481.167C889.714 481.167 891.037 479.843 891.037 478.211C891.037 476.578 889.714 475.254 888.081 475.254C886.449 475.254 885.125 476.578 885.125 478.211C885.125 479.843 886.449 481.167 888.081 481.167Z" fill="black" stroke="black" stroke-linecap="round" stroke-linejoin="round"/>
<path d="M880.878 486.49C880.878 488.995 878.841 491.032 876.336 491.032C873.83 491.032 871.793 488.995 871.793 486.49" stroke="black" stroke-linecap="round" stroke-linejoin="round"/>
<path d="M1026.12 534.993C1027.75 534.993 1029.08 533.669 1029.08 532.037C1029.08 530.404 1027.75 529.081 1026.12 529.081C1024.49 529.081 1023.16 530.404 1023.16 532.037C1023.16 533.669 1024.49 534.993 1026.12 534.993Z" fill="black" stroke="black" stroke-linecap="round" stroke-linejoin="round"/>
<path d="M1049.42 534.993C1051.06 534.993 1052.38 533.669 1052.38 532.037C1052.38 530.404 1051.06 529.081 1049.42 529.081C1047.79 529.081 1046.47 530.404 1046.47 532.037C1046.47 533.669 1047.79 534.993 1049.42 534.993Z" fill="black" stroke="black" stroke-linecap="round" stroke-linejoin="round"/>
<path d="M1042.23 540.316C1042.23 542.821 1040.19 544.858 1037.68 544.858C1035.18 544.858 1033.14 542.821 1033.14 540.316" stroke="black" stroke-linecap="round" stroke-linejoin="round"/>
<path d="M1070.73 211.082C1074.96 213.215 1083.3 210.961 1088.35 209.236C1089.76 208.759 1091.09 210.25 1090.39 211.507L1077.36 234.705C1075.35 238.286 1072.77 241.519 1069.7 244.293L1035.5 275.198C1024.75 284.916 1005.68 287.613 992.943 281.197L935.293 252.156C927.283 248.125 933.577 237.566 933.577 237.566L941.735 219.456L953.169 220.037C958.57 215.209 968.097 213.882 974.443 217.081L985.938 222.872C998.63 229.27 1017.65 226.617 1028.38 216.968C1039.1 207.337 1058.05 204.702 1070.71 211.082H1070.73Z" fill="black" stroke="black" stroke-linecap="round" stroke-linejoin="round"/>
<path d="M1081.71 189.279C1094.37 195.66 1095.99 208.655 1085.31 218.303L1046.48 253.396C1035.73 263.114 1016.66 265.81 1003.93 259.395L946.277 230.353C939.914 227.146 939.151 220.609 944.56 215.763L964.153 198.234C969.553 193.406 979.081 192.079 985.426 195.278L996.922 201.069C1009.61 207.467 1028.63 204.814 1039.37 195.166C1050.08 185.534 1069.03 182.899 1081.7 189.279H1081.71Z" fill="#00ED64" stroke="black" stroke-linecap="round" stroke-linejoin="round"/>
<path d="M1037.26 232.018L1023.73 244.25L1013.78 239.239" stroke="black" stroke-linecap="round" stroke-linejoin="round"/>
<path d="M1021.38 237.549L1013.78 239.239L1016.25 246.209" stroke="black" stroke-linecap="round" stroke-linejoin="round"/>
<path d="M986.148 215.798L978.458 211.906L979.767 210.284L989.858 215.391L988.749 216.786L971.688 225.507L969.391 224.346L986.148 215.798Z" fill="black"/>
<path d="M980.798 228.299C981.24 227.432 982.315 227.024 983.225 227.484C984.11 227.935 984.448 229.053 984.006 229.92C983.555 230.804 982.471 231.186 981.578 230.735C980.668 230.275 980.347 229.192 980.798 228.299Z" fill="black"/>
<path d="M989.884 227.484L992.884 223.756C995.389 220.644 998.276 219.335 1001.8 221.121C1005.14 222.811 1005.88 226.34 1003.39 229.434L1000.39 233.162C997.877 236.3 994.999 237.583 991.462 235.798C988.124 234.107 987.362 230.622 989.876 227.484H989.884ZM998.553 232.174L1001.67 228.316C1003.43 226.132 1002.92 223.973 1000.74 222.863C998.701 221.832 996.637 222.369 994.722 224.745L991.601 228.602C989.832 230.804 990.37 232.963 992.537 234.055C994.574 235.087 996.603 234.567 998.553 232.174Z" fill="black"/>
<path d="M944.109 562.526C957.438 562.526 968.244 551.72 968.244 538.391C968.244 525.062 957.438 514.257 944.109 514.257C930.78 514.257 919.975 525.062 919.975 538.391C919.975 551.72 930.78 562.526 944.109 562.526Z" fill="#F9EBFF" stroke="black" stroke-linecap="round" stroke-linejoin="round"/>
<path d="M944.109 539.518C948.571 539.518 952.188 535.901 952.188 531.439C952.188 526.976 948.571 523.359 944.109 523.359C939.647 523.359 936.029 526.976 936.029 531.439C936.029 535.901 939.647 539.518 944.109 539.518Z" fill="black" stroke="black" stroke-linecap="round" stroke-linejoin="round"/>
<path d="M944.11 562.526C950.569 562.526 956.429 559.986 960.764 555.851C958.232 549.106 951.739 544.295 944.11 544.295C936.482 544.295 929.988 549.106 927.457 555.851C931.792 559.986 937.652 562.526 944.11 562.526Z" fill="black" stroke="black" stroke-linecap="round" stroke-linejoin="round"/>
<path d="M1022.43 281.267L975.292 318.7C969.57 323.242 968.617 331.565 973.159 337.278L988.087 356.072C989.067 357.312 988.867 359.106 987.628 360.086L941.82 396.47C936.099 401.013 935.145 409.335 939.688 415.048L954.616 433.842C955.596 435.082 955.396 436.877 954.157 437.856L904.873 477.058C900.937 481.037 902.905 490.581 909.511 498.904C916.125 507.226 924.976 511.3 929.744 508.37L929.77 508.405L930.308 507.98L992.422 458.645C998.143 454.102 999.097 445.78 994.554 440.067L979.626 421.272C978.647 420.033 978.846 418.238 980.086 417.258L1026.84 380.129C1032.56 375.586 1033.51 367.264 1028.97 361.551L1014.04 342.756C1013.06 341.517 1013.26 339.722 1014.5 338.743L1047.34 312.657L1070.51 268.662L1022.41 281.275L1022.43 281.267Z" fill="#FFC010" stroke="black" stroke-width="1.07" stroke-linecap="round" stroke-linejoin="round"/>
<path d="M948.644 493.425C943.868 496.364 934.999 492.281 928.367 483.932C921.736 475.584 919.768 466.022 923.712 462.034L935.615 452.576C931.67 456.564 933.638 466.126 940.27 474.474C946.902 482.823 955.77 486.897 960.547 483.967L948.644 493.425Z" fill="white" stroke="black" stroke-width="1.07" stroke-linecap="round" stroke-linejoin="round"/>
<path d="M928.367 483.932C921.796 475.662 919.811 466.195 923.625 462.147L904.865 477.066C900.929 481.045 902.897 490.59 909.503 498.912C916.118 507.235 924.969 511.309 929.737 508.379L929.763 508.414L930.3 507.989L948.635 493.425C943.859 496.364 934.981 492.281 928.358 483.932H928.367Z" fill="#F3C4EF" stroke="black" stroke-linecap="round" stroke-linejoin="round"/>
<path d="M929.659 457.318C925.715 461.306 927.683 470.868 934.315 479.216C940.946 487.565 949.815 491.639 954.592 488.709" stroke="black" stroke-width="1.07" stroke-linecap="round" stroke-linejoin="round"/>
<path d="M1021.59 295.84L983.069 326.433C980.971 328.106 980.615 331.157 982.288 333.264L1001.42 357.355C1003.09 359.453 1002.74 362.513 1000.64 364.186L949.632 404.697C947.534 406.37 947.179 409.422 948.852 411.528L967.568 435.099C969.242 437.197 968.886 440.257 966.788 441.931L935.684 466.637" stroke="black" stroke-width="1.07" stroke-linecap="round" stroke-linejoin="round"/>
<path d="M948.125 481.782L986.122 451.605C988.219 449.932 988.575 446.881 986.902 444.774L966.269 418.802C964.596 416.704 964.952 413.643 967.05 411.97L1018.41 371.182C1020.5 369.509 1020.86 366.458 1019.19 364.351L1001.11 341.586C999.437 339.488 999.793 336.428 1001.89 334.755L1032.93 310.109" stroke="black" stroke-width="1.07" stroke-linecap="round" stroke-linejoin="round"/>
<path d="M1022.43 281.267L1021.59 295.84L1034.77 296.819L1032.93 310.109L1047.35 312.658" stroke="black" stroke-width="1.07" stroke-linecap="round" stroke-linejoin="round"/>
<path d="M1034.77 296.819L1032.93 310.109L1047.35 312.658L1070.52 268.653L1022.43 281.267L1021.59 295.84L1034.77 296.819Z" fill="#FFEEA9" stroke="black" stroke-width="1.07" stroke-linecap="round" stroke-linejoin="round"/>
<path d="M1059.06 271.661L1065 279.143L1070.52 268.653L1059.06 271.661Z" fill="black" stroke="black" stroke-width="1.07" stroke-linecap="round" stroke-linejoin="round"/>
<path d="M769.403 582.395C675.266 621.06 773.503 667.439 928.792 642.81C1076.73 615.156 1143.49 529.263 1143.49 529.263" stroke="black" stroke-linecap="round" stroke-linejoin="round"/>
<path d="M1009.6 543.792C999.756 544.165 989.483 544.65 978.785 545.266" stroke="black" stroke-linecap="round" stroke-linejoin="round"/>
<path d="M1206.81 614.064C1230.71 581.589 1215.53 547.268 1082.75 543.255" stroke="black" stroke-linecap="round" stroke-linejoin="round"/>
<path d="M628.279 664.812C725.824 714.226 937.305 759.912 1147.62 659.316C1155.6 655.354 1163.67 650.742 1171.34 645.688" stroke="black" stroke-linecap="round" stroke-linejoin="round"/>
<path d="M583 634.549C588.609 640.157 596.394 646.182 606.129 652.346" stroke="black" stroke-linecap="round" stroke-linejoin="round"/>
</g>
<defs>
<clipPath id="clip0_2601_313">
<rect width="1280" height="800" fill="white"/>
</clipPath>
</defs>
</svg>
